<svg id="Layer_1" height="512" viewBox="0 0 64 64" width="512" xmlns="http://www.w3.org/2000/svg" xmlns:xlink="http://www.w3.org/1999/xlink" data-name="Layer 1"><linearGradient id="linear-gradient" gradientUnits="userSpaceOnUse" x1="15.037" x2="48.963" y1="15.037" y2="48.963"><stop offset="0" stop-color="#00d2ff"/><stop offset="1" stop-color="#3a7bd5"/></linearGradient><path d="m32 8a24 24 0 1 0 24 24 24.027 24.027 0 0 0 -24-24zm-.5 10a2.5 2.5 0 1 1 -2.5 2.5 2.5 2.5 0 0 1 2.5-2.5zm2.5 28h-2a2 2 0 0 1 -2-2v-15a2 2 0 0 1 0-4h2a2 2 0 0 1 2 2v15a2 2 0 0 1 0 4z" fill="url(#linear-gradient)"/></svg>