<svg viewBox="0 -1 512.00106 512" xmlns="http://www.w3.org/2000/svg" fill="#CECFD1"><path d="m495.195312 236.328125c5.671876-6.871094 10.996094-14.015625 15.992188-21.386719 1.332031-1.964844 1.03125-5.726562-.9375-7.265625-63.265625-49.402343-127.746094-97.242187-193.433594-143.378906-18.492187-12.988281-37.085937-25.832031-55.753906-38.5625-2.421875-1.648437-5.40625-.6875-7.445312.960937-10.988282 8.878907-22.171876 17.507813-33.371094 26.113282-17.390625 11.753906-34.382813 24.152344-51.5 36.234375-3.199219 2.257812-6.386719 4.519531-9.582032 6.777343-.023437-1.042968-.058593-2.078124-.066406-3.09375-.058594-6.414062-.058594-12.828124-.175781-19.242187-.109375-6.078125-.410156-12.15625-.628906-18.230469-.121094-3.367187.015625-7.039062-.398438-10.535156 5.210938-.335938 10.023438-1.824219 12.507813-6.484375 2.039062-3.828125 1.570312-8.429687 1.277344-12.585937-.394532-5.542969-.527344-11.875-2.070313-17.246094-1.550781-5.402344-6.074219-5.855469-10.96875-6.101563-5.539063-.28125-11.078125-.417969-16.621094-.507812-19.464843-3.242188-40.328125-1.359375-59.59375.015625-4.1875.300781-9.460937-.058594-12.964843 2.648437-4.046876 3.128907-3.277344 8.722657-3.425782 13.253907-.183594 5.574218-.777344 11.34375-.507812 16.914062.222656 4.621094 2.675781 7.863281 7.355468 8.496094 3.300782.445312 6.796876.417968 10.253907.355468-.457031 8.65625-.117188 17.429688-.28125 26.074219-.171875 9.242188-.394531 18.484375-.605469 27.726563-.21875 9.34375-.449219 18.6875-.535156 28.035156-.078125 8.289062-.886719 17.054688-.019532 25.390625-12.015624 8.527344-24.03125 17.054687-36.050781 25.578125-6.695312 4.753906-13.394531 9.503906-20.089843 14.257812-5.71875 4.058594-11.707032 8.082032-16.292969 13.460938-7.238281 8.5-10.738281 21.292969-4.128907 31.261719 7.894532 11.910156 22.984376 9 33.628907 3.019531 5.175781-2.90625 10.164062-6.265625 15.054687-9.8125-1.121094 21.367188-.113281 42.9375.308594 64.316406.460938 23.214844-.199219 46.949219 2.398438 70.035156.042968.386719.121093.734376.230468 1.046876-2.554687 2.625-4.644531 5.75-6.210937 9.167968-3.578125-1.734375-7.738281-2.191406-11.871094-1.0625-7.554687 2.070313-12.671875 8.683594-15.1875 15.78125-2.691406 7.605469-4.238281 23.628906 1.585937 31.832032-.988281-.019532-1.980468-.019532-2.964843-.058594-4.207031-.152344-6.226563 3.871094-5.683594 7.460937 1.121094 7.433594 3.40625 14.742188 5.640625 21.902344 1.019531 3.265625 2.105469 6.445313 3.503906 9.566406.628906 1.40625 1.296875 2.589844 2.019532 3.695313-5.667969 1.082031-11.160157 2.957031-15.863282 6.417968-11.300781 8.324219-17.722656 27.570313-3.75 36.984376 6.996094 4.714843 17.207032 3.160156 25.191406 3.273437 10.230469.148437 20.464844.289063 30.699219.421875 40.929688.53125 81.863281.9375 122.800781 1.222656 82.207032.566406 164.421876.777344 246.632813.507813 10.359375-.035157 20.722656-.042969 31.078125-.304688 8.964844-.230469 19.136719.394531 27.875-1.863281 14.558594-3.761719 14.527344-25.703125 9.5-36.921875-2.898438-6.46875-8.242188-9.683594-14.855469-10.546875 1.894531-8.3125 3.53125-16.695312 4.816407-25.117188.613281-4.035156 1.21875-8.179687-2.300782-11.113281-1.71875-1.429687-3.808594-1.988281-5.96875-2.277343 2.433594-9.800782 1.640625-20.679688-4.558594-28.925782-4.824218-6.417968-12.347656-10.570312-20.207031-10.816406 1.042969-8.027344.683594-16.59375-4.578125-22.527344.898438-3.441406.804688-6.992187.839844-10.886718.058594-6.433594.117188-12.867188.144531-19.304688.050781-12.527344.144531-25.058594.292969-37.585938.140625-12.191406.382812-24.375.339844-36.566406-.03125-8.960937 1.023437-19.152344-.136719-28.503906 6.9375 4.859375 13.851563 10.351562 21.242187 14.433594 7.921876 4.371094 13.316407.304687 18.375-5.824219zm-419.089843-203.640625c1.46875-5.90625.332031-13.773438.507812-19.890625 16.078125-1.722656 32.339844-2.46875 48.496094-1.632813 9.152344.394532 18.292969.984376 27.4375 1.511719 2.285156.128907 4.820313.539063 7.09375.367188.027344.179687.046875.386719.042969.625-.066406 4.539062 1.113281 9.328125 1.363281 13.902343.058594 1.011719.636719 4.25-.042969 5.261719-.816406 1.222657-2.441406.933594-3.960937.941407-4.726563.03125-9.464844-.121094-14.191407-.183594l-55.757812-.730469c-.992188-.011719-7.503906-.125-10.988281-.171875zm72.566406 70.550781c-18.753906 13.269531-37.5 26.554688-56.238281 39.847657.117187-5.949219-.230469-11.976563-.21875-17.773438.015625-9.679688-.117188-19.355469-.230469-29.035156-.109375-9.558594-.117187-19.125-.390625-28.675782-.230469-7.984374-.378906-16.25-1.835938-24.164062 6.207032.09375 12.417969.195312 18.625.289062l35.480469.558594c1.601563.023438 3.390625.148438 5.273438.269532-.375 3.207031-.269531 6.542968-.375 9.683593-.21875 6.414063-.515625 12.832031-.613281 19.246094-.09375 6.074219-.078126 12.152344-.117188 18.230469-.023438 3.726562-.472656 7.933594.640625 11.523437zm-117.261719 294.644531c.667969-4.972656 1.957032-10.339843 5.835938-13.839843 3.132812-2.828125 8.625-3.980469 11.378906.023437 2.28125 3.316406 8.226562 3.335938 9.21875-1.203125 1.769531-8.121093 6.730469-16.183593 15.75-17.132812 9.285156-.972657 14.046875 7.324219 15.597656 15.25.742188 3.792969 5.582032 4.382812 8.085938 2.136719 3.660156-3.28125 10.542968-9.003907 15.441406-4.660157.9375.832031 1.535156 1.929688 1.898438 3.148438.007812.625.128906 1.25.378906 1.832031.300781 2.515625-.105469 5.269531-.558594 7.324219-1.078125 4.917969 4.578125 8.207031 8.320312 4.84375 4.878907-4.382813 11.371094-.304688 13.855469 4.574219 2.871094 5.625 2.183594 12.027343.949219 18.058593-6.679688-.097656-13.359375-.191406-20.039062-.257812-15.574219-.148438-31.148438-.171875-46.722657.085937-11.8125.195313-23.777343 1.199219-35.660156 1.492188-3.789063-6.976563-4.824219-13.53125-3.730469-21.675782zm412.179688-43.117187c-6.851563-.898437-13.109375 3.332031-18.136719 8.550781-.28125-.328125-.589844-.632812-.886719-.945312 1.269532-12.378906-.105468-25.273438-.273437-37.703125-.167969-12.632813-.257813-25.265625-.121094-37.902344.066406-6.148437.175781-12.292969.332031-18.4375.113282-4.527344.578125-9.316406-4.1875-11.640625-4.203125-2.050781-10.273437-.675781-14.75-.480469-6.710937.296875-13.421875.59375-20.132812.886719-12.078125.535156-24.15625 1.066406-36.234375 1.597656-4.496094.199219-10.695313-.535156-14.710938 1.988282-4.804687 3.023437-4.207031 8.875-4.25 13.804687-.222656 24.859375-.433593 49.71875-.648437 74.582031-.125 14.222656-1.058594 28.703125-.375 42.90625.222656 4.707032 2.707031 7.597656 7.410156 8.3125 4.699219.710938 9.664062.988282 14.542969 1.105469-1.234375 5.425781-.792969 11.1875 1.503906 16.160156-8.785156 1.316407-6.03125 10.46875-5.007813 17.058594 1.21875 7.828125 2.078126 15.710937 4.246094 23.277344-14.65625-.421875-29.320312-.753907-43.980468-1.03125.617187-20.488281.121093-41.0625.234374-61.550781.113282-21.640626.230469-43.277344.34375-64.917969.039063-6.75 3.070313-20.480469-5.917968-22.902344-4.578125-1.234375-10.367188-.328125-15.074219-.347656-5.429687-.023438-10.859375-.046875-16.289063-.070313-21.714843-.089844-43.429687-.207031-65.144531-.273437-2.867187-.007813-5.351562 2.453125-5.332031 5.332031.171875 25.234375.296875 50.46875.566406 75.703125.242188 22.613281-.882812 45.832031 1.523438 68.402344-14.667969.121093-29.335938.328125-44 .617187.894531-5.460937 1.265625-11.117187 1.832031-16.496094.546875-5.210937 3.351563-14.59375-.316406-19.132812-2.484375-3.074219-7.53125-3.316406-12.160157-3.15625 1.21875-9.734375.742188-19.851562-6.097656-27.574219-.714844-.804687-1.488281-1.53125-2.296875-2.1875 6.703125.492188 13.410157 1.039063 20.125 1.242188 5.066407.152343 13.59375 1.1875 18-1.902344 5.03125-3.527344 3.488281-12.5625 3.714844-17.828125 1.324219-30.511719 2.800781-61.019531 4.078125-91.53125.296875-7.105469.542969-14.214844.664062-21.328125.0625-3.71875.148438-7.453125.078126-11.171875-.050782-2.742188.027343-5.707031-2.042969-7.832031-3.800781-3.898438-13.136719-2.484375-18.085938-2.628907-8.175781-.242187-16.355469-.332031-24.535156-.273437-14.910156.105469-30.105469.222656-44.945313 1.804687-6.136718.652344-7.488281 4.550782-7.613281 10.078126-.1875 8.183593-.078125 16.386718-.101562 24.574218-.046875 17.070313.125 34.136719.441406 51.203125.164063 8.871094.304687 17.75.675781 26.617188.195313 4.683593.355469 9.351562.804688 13.980469-4.320313-4.746094-10.210938-7.777344-17.355469-7.347657-2.574219.15625-4.988281.691407-7.234375 1.519531.125-2.28125-.042969-4.628906-.105469-6.800781l-.511719-18.28125c-.363281-12.867187-.875-25.730469-1.375-38.589843-.910156-23.390626-1.183593-47.007813-4.089843-70.226563 5.535156-4.214844 10.988281-8.527344 16.492187-12.546875 13.734375-10.027344 27.46875-20.054688 41.199219-30.082031 26.917969-19.65625 53.835937-39.308594 80.753906-58.964844 13.183594-9.625 26.367188-19.253906 39.550781-28.878906 3.296876-2.410157 6.59375-4.816407 9.886719-7.222657 2.914063-2.125 6.023438-5.148437 9.386719-6.53125 7.183594-2.960937 14.28125 5.410157 19.140625 9.628907 23.796875 20.65625 48.074219 40.761719 72.804687 60.300781 27.648438 21.84375 55.839844 43.003906 84.566407 63.417969 4.828125 3.429687 9.675781 6.832031 14.53125 10.21875-2.933594 10.125-2.246094 22.089843-2.804688 32.289062-.691406 12.519531-1.007812 25.050781-1.320312 37.582031-.304688 12.191407-.5625 24.378907-.773438 36.574219-.113281 6.433594-.175781 12.867188-.207031 19.300781-.011719 2.105469-.066406 4.128907-.003906 6.101563zm-28.78125-41.363281c.042968 2.382812.0625 4.792968.078125 7.21875-10.292969-.199219-20.710938.554687-31.054688 1.03125.113281-9.851563.238281-19.703125.183594-29.554688-.03125-5.085937-.042969-10.175781-.347656-15.25-.179688-3.050781-.273438-6.304687-.960938-9.34375 2.25-.105468 4.503907-.210937 6.753907-.316406 4.699218-.21875 9.394531-.441406 14.09375-.660156 2.011718-.09375 4.023437-.1875 6.039062-.285156 1.210938-.054688 3.695312-.578126 5.550781-.476563.253907 3.160156-.386719 6.976563-.417969 9.730469-.054687 4.097656-.085937 8.195312-.097656 12.292968-.023437 8.539063.035156 17.074219.179688 25.613282zm-31.085938 17.738281c10.410156-.054687 20.96875-.042969 31.230469-1.152344.101563 8.945313.398437 17.980469 1.636719 26.691407-6.800782-3.160157-14.898438-3.523438-21.75.011718-5.089844 2.621094-8.773438 6.835938-10.9375 11.722656-.40625-12.417968-.316406-24.84375-.179688-37.273437zm-6.953125-52.257813c-.089843 4.742188-.066406 9.488282-.164062 14.230469-.199219 9.617188-.566407 19.226563-.917969 28.835938-6.476562.148437-12.953125.328125-19.425781.476562-5.238281.121094-10.8125-.222656-16.039063.757813.066406-7.039063.132813-14.078125.195313-21.113282.085937-9.195312.175781-18.390624.257812-27.585937.015625-1.582031-.269531-4.296875.472657-5.03125.707031-.699219 4.796874-.226563 6.039062-.285156 4.699219-.21875 9.394531-.4375 14.089844-.660157 5.3125-.246093 10.621094-.496093 15.929687-.746093-.59375 3.632812-.371093 7.574219-.4375 11.121093zm-37.128906 106.960938.265625-28.605469c.082031-8.878906.164062-17.753906.246094-26.628906 4.917968.929687 10.132812.632813 15.082031.671875 6.714844.050781 13.425781.054688 20.140625-.058594-.496094 16.574219-.589844 33.175782.328125 49.730469-7.402344.484375-14.53125 3.730469-19.449219 9.8125-.164062.203125-.3125.414063-.464844.621094-4.09375-.464844-8.199218-.695313-12.3125-.96875l-3.828124-.253907c.015624-1.75-.011719-4.15625-.007813-4.320312zm-41.882813-59.515625c-.027343 4.734375-.058593 9.46875-.085937 14.203125-.121094 19.609375-.242187 39.21875-.367187 58.828125-.117188 19.074219-.792969 38.214844-.457032 57.292969-16.183594-.261719-32.375-.441406-48.5625-.515625-12.507812-.058594-25.015625-.03125-37.519531.046875.933594-10.46875.804687-21.03125.8125-31.53125.011719-12.617188.019531-25.234375.027344-37.851563.019531-23.105469-.09375-46.207031-.171875-69.3125 18.574218.113281 37.148437.191407 55.722656.289063 9.5.046875 19 .097656 28.5.148437.703125.003907 1.40625.003907 2.109375.007813.011719.09375.027344.183594.042969.28125-.71875 2.132812-.035156 5.84375-.050782 8.113281zm-156.421874-81.839844c7.992187-.050781 15.984374.019531 23.976562.253907 3.066406.085937 6.128906.195312 9.195312.328124.679688.03125 1.363282.058594 2.042969.089844.160157.035156.28125.054688.421875.078125.003906 1.242188.015625 2.773438.015625 2.570313-.011719 6.773437-.160156 13.546875-.390625 20.316406-.367187 10.996094-.867187 21.992188-1.421875 32.984375-11.410156.203125-22.824219.363281-34.234375.527344.054688-9.496094.160156-18.988281.300782-28.480469.082031-5.5625.226562-11.128906.246093-16.691406.011719-3.835938.277344-8.011719-.152343-11.976563zm33.378906 65.589844c-.660156 12.550781-1.375 25.101563-2.046875 37.648437-.394531 7.359376-.785157 14.722657-1.179688 22.085938-.089843 1.671875-.179687 3.34375-.269531 5.015625-.050781 1.007813.597656 3.105469-.246094 3.875-.058594.058594-.128906.105469-.203125.148437-.457031.242188-.996093.253907-1.511719.261719-9.011718.132813-17.878906-.128906-26.878906-.644531-.019531-10.96875-1.085937-22.023438-1.292968-32.988281-.21875-11.785157-.222657-23.578125-.195313-35.363281 11.273437-.023438 22.550781-.050782 33.824219-.039063zm-76.183594 24.914063c-.09375-8.503907-.117188-17.011719-.121094-25.515626 5.035156.828126 10.40625.539063 15.40625.566407 5.890625.03125 11.78125.070312 17.667969.074219-.242187 11.789062-.25 23.574218-.03125 35.363281.199219 10.714843.085937 21.726562 1.230469 32.441406-.675782-.035156-1.347656-.078125-2.023438-.113281-2.261718-.121094-4.695312.058594-7.03125-.082032-1.085937-3.097656-2.945312-5.847656-5.875-7.828124-6.484375-4.378907-13.421875-2.921876-19.496094.558593 1.398438-11.683593.40625-23.742187.273438-35.464843zm34.023438-61.832032c-.324219 9.539063-.613282 19.082032-.859376 28.621094-5.617187.101562-11.238281.226562-16.859374.351562-5.304688.117188-11.070313-.144531-16.417969.824219.007812-2.632812 0-5.265625.011719-7.898437.058593-13.3125.101562-26.625.164062-39.941406 0-.5.128906-6.402344.105469-9.007813.066406-.003906.128906-.007813.191406-.011719 1.753906.328125 4.335937-.292968 6.125-.402344 6.800781-.417968 13.613281-.730468 20.425781-.933593 2.804688-.082031 5.605469-.140625 8.410156-.191407-.535156 3.621094-.503906 7.441407-.679687 10.949219-.300781 5.871094-.417969 11.761719-.617187 17.640625zm-65.8125 155.933594c13.878906-.253906 27.761718-.277344 41.640624-.175781 13.882813.105469 27.765626.328125 41.648438.566406.160156.003906.328125.015625.503906.035156.011719.339844.011719.691407-.023437 1.023438-.328125 3.273437-.710938 6.542969-1.117188 9.808593-.691406 5.550782-1.867187 11.15625-2.507812 16.75-7.089844.160157-14.179688.335938-21.273438.535157-20.511719.570312-41.023437 1.316406-61.527343 2.136719-9.578126.382812-19.246094.441406-28.792969 1.328124-.003907 0-.007813 0-.011719 0-.238281-5.460937-1.292969-10.589843-2.621094-16.152343-1.15625-4.847657-2.113281-9.765625-3.238281-14.632813 12.28125-1.378906 25.109375-.996094 37.320313-1.222656zm421.25 45.050781c2.378906 1.332031 3.136718 4.328125 3.558593 6.828125.648438 3.851563 1.789063 14.140625-2.625 15.789063-3.589843 1.339843-8.789062.832031-12.578125 1.035156-4.652344.25-9.308594.417969-13.96875.542969-9.351562.246094-18.703125.296875-28.058594.363281-75.386718.558594-150.777343.703125-226.167968.265625-37.863282-.222656-75.726563-.550781-113.589844-.984375-19.101562-.21875-38.203125-.464844-57.304688-.738281-4.433593-.0625-8.867187-.117188-13.300781-.195313-3.328125-.054687-7.707031.585938-10.148437-2.144531-4.667969-5.214844.390625-12.746094 4.894531-15.976562 6.535156-4.6875 15.035156-5.277344 22.796875-5.65625 8.855469-.433594 17.714844-.753907 26.574219-1.117188 18.835937-.773438 37.675781-1.46875 56.519531-2.027344 37.8125-1.113281 75.640625-1.722656 113.46875-1.988281 72.3125-.507813 144.574219 1.214844 216.835938 3.621094 6.882812.347656 13.769531.691406 20.652343 1.050781 3.714844.195312 9.097657-.542969 12.441407 1.332031zm-7.949219-39.929687c-.621094 2.511718-1.214844 8.59375-1.394531 9.496094-1.136719 5.792968-2.554688 11.53125-4.085938 17.230468-6.832031.015625-13.683594.257813-20.480469.261719-6.792969.003906-13.59375-.058594-20.398437-.125-.132813-.007813-.269532-.011719-.402344-.019531-20.425781-1.042969-40.863281-1.894532-61.304688-2.574219-3.886718-.132813-7.773437-.230469-11.664062-.347656.167969-4.601563-.171875-9.132813-.6875-13.859375-.367188-3.371094-.734375-6.742188-1.101562-10.113282-.121094-1.117187-.601563-3.316406-.894532-5.3125 1.335938-.019531 2.667969-.039062 4-.054687 3.375-.039063 6.75-.0625 10.125-.070313 7.089844-.011718 14.179688.046876 21.265625.175782 13.835938.253906 27.667969.785156 41.484375 1.589844 13.480469.78125 26.945313 1.828124 40.382813 3.136718 1.578125.152344 3.472656.527344 5.15625.585938zm-8.308594-32.929688c3.808594 6.324219 3.363281 13.773438 1.246094 20.554688-18.855469-1.777344-37.757813-3.046875-56.679688-3.796875-10.121093-.402344-20.242187-.65625-30.371093-.761719-8.191407-.089844-16.59375-.472656-24.871094-.238281-2.28125-6.671875-2.226563-14.421875 2.207031-20.070313 5.242187-6.675781 15.253906-8.53125 22.675781-4.65625 4.5625 2.378906 8.597656-2.292968 6.652344-6.648437-3.175781-7.105469.300781-16.851563 7.40625-20.167969 7.960938-3.714844 17.148438 1.117188 20.527344 8.664062 1.695312 3.789063 6.640625 2.640626 8.605468 0 3.585938-4.820312 10.660157-13.625 17.054688-7.664062 5.707031 5.320312 3.21875 14.511719 1.660156 21.011719-.878906 3.664062 2.371094 7.132812 6.121094 6.121093 6.957031-1.878906 14.089844 1.546876 17.765625 7.652344zm-37.816406-203.390625c-24.164063-17.300781-47.957031-35.121093-71.328125-53.476562-23.777344-18.667969-47.136719-37.863281-70.0625-57.566407-9.050782-7.78125-19.847656-20.882812-33.03125-20.140624-6.761719.378906-12.035156 5.078124-17.242188 8.878906-6.589844 4.816406-13.183594 9.628906-19.773437 14.445312-51.085938 37.3125-102.167969 74.621094-153.25 111.933594-11.929688 8.714844-23.589844 18.785156-36.417969 26.140625-4.316406 2.480469-10.886719 5.78125-15.800781 2.898437-4.621094-2.714843-4.648438-9.316406-2.902344-13.769531 2.128906-5.429687 7-9.527343 11.511719-12.988281 6.164062-4.726562 12.605468-9.121094 18.910156-13.660156 13.339844-9.601563 26.675781-19.203125 40.011719-28.804688 28.898437-20.800781 57.804687-41.59375 86.652343-62.46875 7.039063-5.09375 14.125-10.152344 21.203126-15.21875 23.125-13.214844 44.867187-29.039062 65.796874-45.476562 64.261719 43.746094 127.433594 89.09375 189.445313 135.976562 16.839844 12.730469 33.582031 25.59375 50.25 38.554688-3.539063 5.039062-7.234375 9.957031-11.15625 14.714844-1.867187 2.265624-2.449219 4.578124-5.285156 3.058593-3.894531-2.089843-7.527344-5.09375-11.175781-7.589843-12.207032-8.347657-24.328126-16.828126-36.355469-25.441407zm0 0"/><path d="m224.980469 371.359375c-3.4375 1.984375-5.410157 5.984375-4.742188 9.921875.789063 4.660156 4.957031 7.5 9.621094 7.085938 6.011719-.535157 10.300781-6.648438 8.457031-12.472657-1.796875-5.660156-8.453125-7.347656-13.335937-4.535156zm0 0"/><path d="m270.828125 146.699219c-15.433594-2.679688-31.441406 2.804687-43.5625 12.355469-6.683594 5.261718-12.765625 12.207031-16.109375 20.15625-3.234375 5.558593-5.691406 11.589843-7.175781 17.898437-6.589844 28.046875 18.359375 50.972656 44.492187 54.359375 26.503906 3.433594 53.75-13.140625 59.800782-39.84375 5.90625-26.070312-9.429688-60.0625-37.445313-64.925781zm-17.628906 95.617187c-19.742188-1.148437-42.691407-15.449218-42.175781-37.101562.050781-2.175782.3125-4.355469.746093-6.527344 6.121094 2.054688 13.199219 2.015625 19.492188 2.289062 7.339843.320313 14.671875.429688 22.015625.433594-.300782 13.632813-.320313 27.269532-.078125 40.90625zm.253906-49.261718c-6.71875.097656-13.4375.164062-20.152344.308593-6.539062.140625-13.980469-.34375-20.523437 1.285157 1.652344-5.550782 4.34375-10.945313 7.550781-15.828126 8.484375-11.945312 20.894531-20.757812 35.921875-22.660156-2.390625 12-2.554688 24.621094-2.796875 36.894532zm46.207031 8.25c-.3125 20.695312-16.863281 37.046874-36.457031 40.4375-.355469-13.457032-.460937-26.921876-.285156-40.382813 6.097656-.054687 12.191406-.136719 18.285156-.296875 4.078125-.109375 8.152344-.265625 12.226563-.4375 2.273437-.097656 4.335937-.019531 6.21875-.496094.007812.394532.019531.785156.011718 1.175782zm-16.417968-9.046876c-6.710938.246094-13.421876.449219-20.136719.605469.4375-12.320312 1.378906-24.832031.335937-37.054687 10.300782.367187 19.886719 4.640625 26.039063 13.332031 4.519531 6.386719 7.859375 14.507813 9.335937 22.617187-4.925781-.980468-11.074218.335938-15.574218.5zm0 0" /></svg>