<svg id="Layer_1" enable-background="new 0 0 512 512" viewBox="0 0 512 512" xmlns="http://www.w3.org/2000/svg"><g><g clip-rule="evenodd" fill-rule="evenodd"><path d="m424.8 169.4c1.4-2.1 4.2-2.7 6.3-1.4 16.6 10.2 27.8 16.2 27.9 16.2 1.7.9 2.6 2.7 2.5 4.6-.3 7-9.1 178.6-203 283.3-1.5.8-3.2.7-4.5-.1-197.6-106.7-202.9-282.9-202.9-283.4-.1-1.9.9-3.5 2.5-4.3.3-.2 115.5-62 151.2-122.6.9-1.5 2.4-2.3 4-2.3h95c1.9 0 3.5 1.1 4.2 2.7 1.6 2.8 3.5 5.6 5.5 8.4 2.1 3 4.4 5.9 6.8 8.8 1.5 1.9 1.4 4.6-.3 6.3z" fill="#5c9cee"/><path d="m310.6 114c1.6 1.6 1.7 4 .6 5.8l82.7 65.8-.1.2c1.5-1.9 4.1-2.3 6.2-1 4.6 2.9 9 5.8 13.4 8.4 4.6 2.8 9 5.5 13.4 8 1.6.9 2.6 2.8 2.3 4.8-2 11.8-5.2 24.3-9 36.4-4.4 13.9-9.6 27.1-14.6 37.9-15.1 32.7-35.2 61.8-59.2 87.4-25.4 27.1-55 50.1-87.4 69.3-1.4.9-3.3 1-4.8 0-32.8-19.4-62.7-42.7-88.2-70.1-24-25.8-44.2-55.3-59.3-88.5-4.7-10.4-9.8-23.4-14.1-37-3.7-11.8-6.8-24-8.8-35.4-.3-1.9.5-3.8 2.3-4.8 25.5-14.8 54.6-34.1 80.9-55.3 21.2-17.1 40.4-35.5 54.4-54 .8-1.3 2.3-2.1 3.9-2.1h62.6c1.4 0 2.8.6 3.7 1.9 2.8 3.7 5.8 7.4 8.9 11 3 3.8 6.5 7.6 10.2 11.3z" fill="#5392e6"/><path d="m332 381.9c-22 21-46.7 39.4-73.4 55.1-1.4.9-3.3 1-4.8 0-26.7-15.7-51.4-34.1-73.4-55.1v-11.2c0-20.9 8.5-39.8 22.3-53.5 13.7-13.7 32.7-22.3 53.5-22.3 20.9 0 39.8 8.5 53.5 22.3 13.7 13.7 22.3 32.7 22.3 53.5z" fill="#98db7c"/><g fill="#89ca75"><path d="m218.6 413.8c-4.1-3-8.2-6.1-12.2-9.3v-26c0-3.4 2.8-6.1 6.1-6.1 3.4 0 6.1 2.8 6.1 6.1z"/><path d="m306.1 404.5c-4 3.2-8.1 6.3-12.2 9.3v-35.3c0-3.4 2.8-6.1 6.1-6.1 3.4 0 6.1 2.8 6.1 6.1z"/></g></g><path d="m256.3 171.6c13.8 0 26.4 5.6 35.5 14.8s14.8 21.7 14.8 35.5v32.2c0 13.8-5.6 26.4-14.8 35.5-9.1 9.1-21.7 14.8-35.5 14.8-13.8 0-26.4-5.6-35.5-14.8-9.1-9.1-14.8-21.7-14.8-35.5v-32.2c0-13.8 5.6-26.4 14.8-35.5s21.6-14.8 35.5-14.8z" fill="#f9c5b8"/><path clip-rule="evenodd" d="m379.9 40.7c21.4 0 40.7 8.7 54.7 22.7s22.7 33.4 22.7 54.7-8.7 40.7-22.7 54.7-33.4 22.7-54.7 22.7c-21.4 0-40.7-8.7-54.7-22.7s-22.7-33.4-22.7-54.7 8.7-40.7 22.7-54.7 33.3-22.7 54.7-22.7z" fill="#98db7c" fill-rule="evenodd"/><path d="m336 125.4c-1.3-2.2-.5-5.1 1.7-6.4s5.1-.5 6.4 1.7l6.6 11.4 66.6-38.5c2.2-1.3 5.1-.5 6.4 1.7s.5 5.1-1.7 6.4l-70.6 40.8c-2.2 1.3-5.1.5-6.4-1.7z" fill="#fff"/><path clip-rule="evenodd" d="m103.9 221.3c25.5-14.8 54.6-34.1 80.9-55.3 21.2-17.1 40.4-35.5 54.4-54 .8-1.3 2.3-2.1 3.9-2.1h59.9c.1-1.2.3-2.4.5-3.6-1.1-1.2-2.2-2.4-3.2-3.7-3.1-3.6-6.1-7.3-8.9-11-.9-1.2-2.3-1.9-3.7-1.9h-62.7c-1.6 0-3.1.8-3.9 2.1-13.9 18.4-33.2 36.8-54.4 54-26.3 21.2-55.4 40.5-80.9 55.3-1.7 1-2.6 3-2.3 4.8 1.9 11.5 5.1 23.7 8.8 35.4 4.3 13.6 9.3 26.6 14.1 37 15.1 33.2 35.2 62.6 59.3 88.5 1.9 2 3.7 4 5.6 5.9-18.6-22.3-34.4-47-46.8-74.3-4.7-10.4-9.8-23.4-14.1-37-3.7-11.8-6.8-24-8.8-35.4-.3-1.8.6-3.7 2.3-4.7z" fill="#4d85dc" fill-rule="evenodd"/><path clip-rule="evenodd" d="m225.3 205.9c11.9-1.9 25.3-.8 38.1 7.6 8.2 5.4 16.8 7 24.8 6.6 6.5-.3 12.6-2 18-4.1-1.4-11.5-6.6-21.8-14.4-29.6-9.1-9.1-21.7-14.8-35.5-14.8s-26.4 5.6-35.5 14.8c-6.8 6.8-11.6 15.4-13.7 25.1 5.3-2.4 11.5-4.5 18.2-5.6z" fill="#6e555e" fill-rule="evenodd"/></g></svg>