<svg id="Icons" height="512" viewBox="0 0 60 60" width="512" xmlns="http://www.w3.org/2000/svg" fill="#2B7281"><path d="m5 57a1 1 0 0 0 1 1h48a1 1 0 0 0 1-1v-17h-50z"/><path d="m2 31h56v7h-56z"/><path d="m55 23h-10v2h2a1 1 0 0 1 0 2h-34a1 1 0 0 1 0-2h2v-2h-10l-2.995 6h56z"/><path d="m17 25h26v-23h-26zm21-11a3 3 0 0 1 0-6h2a1 1 0 0 1 0 2h-2a1 1 0 0 0 0 2 3 3 0 0 1 0 6h-2a1 1 0 0 1 0-2h2a1 1 0 0 0 0-2zm-11-4a2 2 0 0 1 2-2h3a1 1 0 0 1 0 2h-3v2h1a1 1 0 0 1 0 2h-1v2h3a1 1 0 0 1 0 2h-3a2 2 0 0 1 -2-2zm-7.555-1.832a1 1 0 0 1 1.387.277l1.168 1.755 1.168-1.752a1 1 0 0 1 1.664 1.11l-1.832 2.742v4.7a1 1 0 0 1 -2 0v-4.7l-1.832-2.745a1 1 0 0 1 .277-1.387z"/></svg>