<svg id="Icons" height="512" viewBox="0 0 60 60" width="512" xmlns="http://www.w3.org/2000/svg" fill="#CECFD1"><path d="m34 16a1 1 0 0 0 1-1v-4a1 1 0 0 0 -2 0v4a1 1 0 0 0 1 1z"/><path d="m17 25h26v-23h-26zm14-14a3 3 0 0 1 6 0v4a3 3 0 0 1 -6 0zm-8-2a1 1 0 0 1 1.9-.447l2.1 4.211v-3.764a1 1 0 0 1 2 0v8a1 1 0 0 1 -.771.974 1.051 1.051 0 0 1 -.229.026 1 1 0 0 1 -.895-.553l-2.105-4.211v3.764a1 1 0 0 1 -2 0z"/><path d="m5 57a1 1 0 0 0 1 1h48a1 1 0 0 0 1-1v-17h-50z"/><path d="m2 31h56v7h-56z"/><path d="m47 27h-34a1 1 0 0 1 0-2h2v-2h-10l-2.995 6h56l-3.005-6h-10v2h2a1 1 0 0 1 0 2z"/></svg>