<?xml version="1.0" standalone="no"?>
<!DOCTYPE svg PUBLIC "-//W3C//DTD SVG 20010904//EN"
 "http://www.w3.org/TR/2001/REC-SVG-20010904/DTD/svg10.dtd">
<svg version="1.0" xmlns="http://www.w3.org/2000/svg"
 width="972.000000pt" height="972.000000pt" viewBox="0 0 972.000000 972.000000"
 preserveAspectRatio="xMidYMid meet">

<g transform="translate(0.000000,972.000000) scale(0.100000,-0.100000)"
fill="#FFFFFF" stroke="none" opacity=".1">
<path d="M4560 9264 c-19 -2 -87 -9 -150 -15 -917 -86 -1846 -503 -2530 -1137
-807 -747 -1290 -1708 -1412 -2807 -17 -161 -17 -729 0 -890 91 -821 380
-1558 862 -2200 134 -178 226 -285 393 -454 753 -762 1714 -1210 2792 -1301
154 -13 536 -13 690 0 1078 91 2042 540 2792 1301 281 285 496 566 689 901
324 560 518 1188 574 1853 13 155 13 536 0 690 -91 1078 -539 2039 -1301 2792
-169 167 -276 259 -454 393 -629 473 -1331 753 -2145 856 -118 15 -711 28
-800 18z m541 -309 c52 -19 49 -19 49 5 0 13 7 20 20 20 18 0 20 -7 20 -80 0
-79 0 -80 -25 -80 -20 0 -25 5 -25 24 0 44 -84 86 -169 86 -144 0 -252 -139
-238 -306 15 -194 194 -312 360 -237 43 20 47 25 47 57 0 29 4 36 20 36 18 0
20 -7 20 -64 l0 -64 -37 -14 c-23 -8 -83 -13 -153 -13 -106 0 -120 2 -172 28
-62 30 -115 83 -150 149 -20 37 -23 58 -23 143 0 89 3 106 27 150 26 49 94
121 136 144 76 41 202 48 293 16z m-681 -31 c0 -9 -11 -14 -35 -14 -21 0 -35
-5 -35 -12 0 -7 16 -130 35 -272 19 -142 35 -266 35 -274 0 -11 9 -13 40 -9
33 4 40 2 40 -12 0 -14 -17 -19 -97 -29 -124 -15 -133 -15 -133 3 0 10 10 15
29 15 17 0 33 4 36 10 3 5 -10 128 -30 274 -19 145 -35 269 -35 275 0 6 -17
11 -40 11 -27 0 -40 4 -40 14 0 10 30 17 108 28 115 15 122 15 122 -8z m-570
-104 c28 0 81 -49 101 -95 36 -79 17 -156 -49 -205 l-30 -22 82 -72 c148 -130
145 -129 189 -122 32 6 38 4 35 -10 -3 -18 -74 -44 -119 -44 -19 0 -58 28
-145 106 -111 99 -120 106 -152 100 -19 -3 -37 -8 -40 -11 -3 -3 10 -58 29
-122 36 -122 38 -124 87 -109 20 7 23 5 20 -10 -2 -13 -28 -25 -98 -46 -110
-32 -120 -33 -120 -13 0 8 4 15 9 15 5 0 21 4 34 9 l24 9 -77 269 -78 268 -37
0 c-78 0 -43 22 97 63 155 44 186 51 206 46 8 -2 22 -4 32 -4z m2231 -40 c29
-10 69 -31 90 -45 29 -19 39 -22 39 -11 0 19 14 28 33 20 13 -5 12 -15 -7 -77
-18 -58 -26 -73 -44 -75 -19 -3 -21 0 -16 28 6 27 1 35 -35 69 -39 36 -119 71
-163 71 -93 0 -187 -70 -233 -172 -87 -193 28 -398 222 -398 62 0 90 14 98 49
7 33 12 36 35 22 12 -8 12 -17 -4 -66 -9 -31 -24 -59 -33 -62 -28 -11 -183 16
-238 41 -153 70 -230 222 -191 377 52 202 251 304 447 229z m491 -188 c74 -35
96 -50 89 -60 -7 -12 -14 -11 -40 3 l-32 16 -73 -153 c-178 -374 -172 -360
-152 -372 38 -23 45 -31 38 -43 -11 -18 -214 81 -206 101 5 14 9 14 36 0 17
-9 34 -12 38 -7 8 8 240 498 240 506 0 3 -13 10 -30 17 -30 12 -36 21 -23 33
10 10 11 10 115 -41z m-3347 -84 c62 -32 130 -103 158 -166 31 -71 35 -182 8
-253 -46 -122 -148 -193 -276 -193 -268 0 -422 313 -265 534 28 39 81 79 127
96 61 23 187 13 248 -18z m3643 -46 c7 -5 10 -15 7 -23 -7 -21 373 -270 402
-263 37 10 36 -15 -4 -76 -21 -33 -41 -60 -44 -60 -4 0 -12 7 -19 15 -9 11 -8
20 9 43 l21 30 -78 51 c-43 28 -81 51 -85 51 -6 0 -295 -434 -303 -455 -2 -5
14 -22 37 -36 32 -21 37 -28 26 -37 -10 -9 -38 5 -125 64 -62 41 -110 79 -107
84 9 15 27 12 55 -10 14 -11 28 -20 32 -20 9 0 308 445 308 458 0 5 -36 32
-80 60 l-80 51 -17 -30 c-19 -31 -40 -38 -49 -15 -5 13 62 126 75 126 3 0 12
-4 19 -8z m-4337 -244 c49 -60 52 -67 38 -84 -11 -14 -16 -12 -39 16 l-25 31
-77 -62 -77 -62 171 -211 c94 -116 174 -212 179 -214 5 -2 25 9 45 24 28 21
37 25 44 14 5 -9 -18 -34 -79 -83 -47 -38 -94 -77 -104 -85 -13 -12 -20 -13
-29 -4 -9 9 -4 19 21 40 19 16 32 33 30 39 -6 15 -333 422 -340 422 -6 1 -119
-86 -143 -109 -5 -5 1 -22 14 -40 19 -26 20 -34 9 -41 -22 -14 -25 -12 -68 43
-45 56 -47 73 -10 73 31 0 383 281 375 300 -4 12 11 35 24 35 3 0 22 -19 41
-42z m5002 -278 c46 -43 59 -70 35 -70 -7 0 -24 12 -39 26 l-28 27 -6 -24
c-10 -45 -45 -243 -45 -259 0 -15 16 -13 128 17 70 19 133 36 141 39 11 3 5
14 -19 39 -29 30 -31 35 -16 41 23 9 151 -115 136 -130 -7 -7 -14 -6 -22 2
-20 20 -36 17 -324 -63 -45 -13 -62 -27 -139 -110 l-88 -96 22 -23 c24 -25 27
-46 8 -46 -20 0 -171 157 -158 164 6 4 24 -2 40 -13 l28 -20 92 93 c50 51 91
97 91 102 0 5 14 87 32 181 30 166 31 174 14 192 -10 11 -15 25 -11 31 7 12
19 2 128 -100z m-2343 66 c384 -43 707 -137 1045 -302 904 -441 1548 -1301
1714 -2289 31 -187 41 -311 41 -530 0 -219 -10 -344 -40 -525 -113 -667 -427
-1257 -921 -1735 -155 -150 -256 -231 -434 -350 -433 -288 -900 -457 -1415
-511 -211 -22 -576 -15 -775 16 -671 102 -1251 387 -1729 850 -507 491 -816
1094 -928 1810 -19 127 -22 183 -22 445 0 322 12 443 69 695 101 448 316 896
605 1260 107 135 365 394 500 500 462 366 1010 594 1595 664 159 19 535 20
695 2z m-3239 -338 c50 -45 57 -54 45 -66 -12 -12 -18 -11 -44 8 l-30 23 -46
-22 c-92 -45 -112 -137 -42 -193 30 -25 73 -22 181 12 140 45 184 48 237 17
82 -48 110 -145 67 -234 -23 -48 -77 -97 -126 -115 -27 -10 -30 -14 -20 -29 9
-14 9 -21 0 -30 -13 -13 -24 -6 -95 56 -39 34 -44 43 -34 57 11 15 15 14 45
-9 l33 -26 45 19 c57 24 103 79 110 131 4 34 1 45 -23 72 -44 48 -80 49 -207
7 -128 -43 -189 -46 -237 -13 -77 51 -95 147 -46 231 26 45 82 96 104 96 15 0
16 17 2 25 -10 6 4 35 17 35 2 0 31 -23 64 -52z m-407 -437 c3 -4 -1 -17 -9
-27 -8 -10 -15 -24 -15 -31 0 -11 431 -302 460 -310 10 -3 22 6 30 21 7 14 17
26 21 26 25 0 15 -30 -33 -102 -29 -44 -56 -85 -59 -91 -4 -5 -15 -7 -24 -3
-15 5 -14 9 5 37 12 16 21 32 19 33 -17 16 -461 306 -468 306 -5 0 -18 -12
-29 -27 -16 -21 -24 -25 -32 -17 -9 9 3 34 49 103 59 87 73 101 85 82z m6641
-115 c69 -31 106 -65 140 -128 27 -47 30 -62 30 -138 -1 -98 -20 -149 -86
-224 -113 -128 -332 -143 -457 -31 -71 64 -96 121 -97 215 0 62 5 86 29 137
78 169 274 244 441 169z m-6905 -295 c0 -5 -5 -22 -10 -37 -6 -15 -9 -29 -6
-31 7 -7 508 -223 518 -223 4 0 8 6 8 13 0 23 28 53 39 42 6 -7 0 -33 -20 -80
-17 -38 -37 -85 -44 -102 -10 -23 -19 -31 -29 -27 -14 5 -14 10 -1 41 l15 34
-53 23 c-28 13 -84 37 -124 54 l-71 30 -72 -165 c-40 -91 -68 -169 -64 -173
10 -9 222 -100 234 -100 4 0 13 14 20 30 7 17 16 30 21 30 20 0 17 -24 -15
-99 -48 -112 -54 -121 -71 -115 -13 5 -12 10 1 36 9 17 12 34 7 38 -10 10
-500 220 -512 220 -5 0 -14 -13 -21 -30 -13 -30 -24 -37 -34 -21 -5 7 64 185
79 209 1 1 9 0 18 -4 15 -5 15 -9 1 -36 -9 -16 -13 -32 -10 -36 15 -15 231
-101 237 -95 11 14 142 323 138 327 -9 9 -215 96 -226 96 -7 0 -19 -13 -25
-30 -10 -22 -17 -27 -27 -21 -11 7 -6 27 29 110 24 56 49 101 57 101 7 0 13
-4 13 -9z m7355 -511 c49 -134 67 -174 79 -172 14 3 17 -4 16 -35 -1 -10 -127
-53 -134 -45 -14 14 -4 31 27 43 17 7 33 13 35 14 2 2 -68 206 -74 214 -4 5
-216 -69 -227 -79 -11 -10 45 -170 60 -170 6 0 23 4 36 9 20 8 27 6 31 -6 9
-22 3 -26 -87 -58 -66 -24 -80 -26 -88 -14 -14 22 -11 27 21 34 16 4 32 10 34
14 5 7 -47 157 -58 168 -3 3 -59 -14 -126 -37 l-121 -43 6 -39 c5 -29 3 -38
-7 -38 -20 0 -92 201 -75 212 8 5 17 -3 27 -27 10 -24 20 -33 30 -29 8 3 129
47 268 97 204 73 252 94 248 106 -19 61 -19 63 -1 60 13 -3 34 -51 80 -179z
m-19 -694 c74 -74 26 -186 -82 -186 -53 0 -104 53 -104 108 0 66 47 110 119
111 25 1 41 -7 67 -33z m-7403 4 c74 -58 39 -181 -55 -196 -106 -18 -169 121
-87 190 39 33 104 36 142 6z m198 -835 c4 -88 7 -175 8 -192 1 -22 6 -33 16
-33 8 0 15 -9 15 -20 0 -18 -7 -20 -75 -20 -68 0 -75 2 -75 20 0 17 7 20 41
20 l42 0 -7 61 c-3 34 -6 86 -6 115 l0 54 -109 0 c-60 0 -116 -3 -125 -6 -13
-5 -16 -23 -16 -95 l0 -89 40 0 c33 0 40 -3 40 -20 0 -15 -7 -20 -27 -20 -16
0 -58 -3 -95 -7 -65 -6 -68 -5 -68 16 0 14 6 21 19 21 47 0 51 8 51 101 l0 89
-82 0 c-46 0 -107 -3 -135 -6 -52 -7 -53 -7 -53 -40 0 -44 -25 -46 -34 -3 -3
17 -6 69 -6 115 0 68 3 84 15 84 10 0 15 -11 15 -35 l0 -35 83 0 c45 0 173 3
285 7 l202 6 0 39 c0 32 3 39 18 36 15 -3 18 -22 23 -163z m6999 115 c0 -17
-7 -20 -38 -20 l-39 0 -7 -111 c-3 -62 -4 -114 -2 -117 3 -3 59 -7 124 -10
l119 -5 6 48 c4 26 7 67 7 91 0 41 -1 43 -35 50 -26 5 -35 11 -35 26 0 19 4
20 46 14 26 -3 69 -6 95 -6 42 0 49 -3 49 -20 0 -17 -7 -20 -39 -20 l-38 0 -6
-87 c-3 -49 -2 -91 1 -95 4 -3 63 -8 132 -10 l125 -3 6 115 c6 125 4 130 -48
130 -26 0 -33 4 -33 20 0 17 7 20 53 20 28 0 58 -4 64 -8 10 -6 10 -48 3 -187
-5 -99 -10 -195 -10 -212 0 -23 -5 -33 -15 -33 -10 0 -15 10 -15 34 l0 33 -87
6 c-49 4 -158 9 -243 12 -85 3 -174 8 -197 11 l-43 5 0 -35 c0 -37 -9 -49 -27
-38 -8 5 -9 56 -2 191 9 163 8 186 -5 193 -9 5 -16 16 -16 23 0 12 16 15 75
15 68 0 75 -2 75 -20z m-6955 -612 c44 -192 55 -261 49 -295 -16 -85 -125
-147 -215 -123 -41 11 -71 34 -99 78 -15 24 -15 23 -124 -88 -105 -108 -108
-112 -101 -146 5 -31 4 -35 -12 -32 -19 4 -30 38 -32 103 -1 38 4 45 114 155
l115 115 -11 37 c-11 43 2 42 -160 4 -52 -12 -93 -27 -93 -32 1 -5 4 -21 8
-36 5 -23 3 -28 -12 -28 -18 0 -21 11 -60 198 -3 16 0 22 12 22 10 0 19 -11
23 -30 3 -16 11 -30 19 -30 13 0 491 106 527 116 14 5 17 12 12 35 -7 29 -1
49 15 49 5 0 16 -33 25 -72z m6848 17 c68 -16 70 -17 61 -39 -4 -10 -13 -15
-25 -11 -11 3 -28 7 -38 10 -13 4 -21 0 -25 -12 -12 -41 -46 -206 -43 -209 4
-4 221 -54 234 -54 5 0 17 39 27 86 20 91 17 103 -26 104 -11 0 -18 8 -18 20
0 24 5 24 103 3 68 -16 77 -20 77 -40 0 -13 -5 -21 -12 -19 -66 21 -64 23 -83
-72 -10 -48 -17 -89 -15 -92 5 -7 243 -61 247 -56 5 5 53 206 53 223 0 6 -18
14 -40 18 -24 4 -40 12 -40 20 0 23 18 27 76 15 50 -11 55 -14 51 -33 -3 -12
-25 -109 -48 -214 -31 -139 -47 -193 -57 -193 -11 0 -13 10 -9 40 3 22 3 40 0
40 -3 0 -126 27 -275 61 -282 64 -287 64 -288 18 0 -20 -9 -29 -24 -23 -11 4
20 165 69 362 4 15 1 22 -10 22 -17 0 -18 2 -9 24 7 19 13 19 87 1z m-147
-651 c30 -13 54 -26 54 -28 0 -2 -3 -11 -6 -19 -5 -13 -10 -14 -39 -1 -32 13
-35 12 -65 -12 -63 -54 -79 -131 -36 -177 52 -56 92 -47 230 53 45 32 94 63
109 69 75 29 169 -2 210 -69 16 -26 22 -50 22 -95 -1 -69 -19 -111 -73 -167
-28 -30 -32 -39 -20 -43 14 -5 15 -45 2 -45 -21 0 -154 66 -154 76 0 21 14 24
52 12 31 -9 39 -8 67 13 38 28 71 93 71 141 0 55 -40 98 -91 98 -49 0 -85 -18
-171 -86 -113 -88 -178 -101 -256 -54 -88 54 -92 207 -9 298 17 19 19 25 8 32
-8 4 -11 15 -8 25 8 19 19 16 103 -21z m-7118 -160 c8 -17 18 -24 30 -20 9 2
127 7 262 10 135 4 277 9 316 12 122 10 118 3 -152 -267 -222 -222 -235 -238
-224 -259 10 -18 9 -24 -1 -31 -18 -11 -20 -8 -67 98 -32 72 -37 93 -26 97 9
3 20 -7 32 -29 l17 -35 67 67 67 68 -49 110 -49 110 -95 3 c-53 1 -96 0 -96
-3 0 -3 6 -21 14 -40 13 -29 12 -34 0 -39 -11 -4 -25 15 -50 71 -32 71 -37
103 -16 103 5 0 14 -12 20 -26z m6845 -376 c34 -22 64 -43 66 -44 2 -2 -2 -10
-9 -19 -11 -13 -16 -13 -42 2 -28 17 -30 17 -65 -2 -46 -25 -72 -60 -80 -107
-5 -33 -2 -41 30 -73 23 -23 44 -35 63 -35 15 0 80 24 143 54 140 66 174 73
227 51 107 -45 142 -144 88 -253 -24 -48 -60 -88 -102 -111 -13 -8 -14 -12 -5
-22 8 -8 9 -18 2 -30 -9 -17 -15 -15 -79 28 -74 48 -75 50 -61 72 7 11 14 10
40 -8 l30 -22 38 20 c96 49 131 146 77 210 -41 49 -93 44 -223 -21 -90 -46
-113 -53 -162 -53 -160 0 -212 179 -89 307 29 30 43 51 37 57 -10 10 -3 41 8
41 3 0 34 -19 68 -42z m-5964 -64 l39 -55 -29 -87 c-84 -248 -155 -481 -145
-475 6 3 89 62 184 131 l172 124 -20 28 c-24 33 -24 36 -6 43 19 8 122 -141
108 -155 -7 -7 -18 -2 -34 17 l-24 28 -238 -173 c-131 -94 -244 -174 -251
-177 -7 -2 -16 0 -19 5 -3 5 37 137 89 293 52 156 94 290 93 297 -2 8 -75 -38
-186 -118 -114 -83 -180 -136 -176 -143 4 -7 14 -20 23 -30 13 -16 13 -19 1
-27 -18 -11 -21 -8 -84 81 -36 52 -43 68 -31 72 8 4 23 -4 34 -19 11 -14 24
-24 29 -22 5 1 102 70 217 153 124 89 211 159 216 173 7 18 4 30 -11 50 -16
20 -18 27 -8 34 7 4 14 8 15 8 1 0 20 -25 42 -56z m5691 -433 c0 -3 -5 -13
-10 -21 -7 -12 -14 -10 -40 15 l-31 30 -79 -85 -79 -85 92 -87 92 -86 62 66
61 67 -26 28 c-23 24 -24 29 -12 42 13 12 24 6 85 -49 62 -56 68 -65 56 -80
-13 -15 -16 -15 -41 9 l-26 25 -65 -66 -64 -67 95 -89 c51 -48 97 -87 100 -86
4 2 42 41 84 86 l78 84 -31 32 c-29 29 -30 34 -16 46 14 11 22 7 60 -30 l44
-43 -69 -76 c-175 -193 -226 -244 -238 -237 -9 5 -7 14 8 33 11 14 20 29 20
33 0 6 -149 145 -382 359 l-28 25 -25 -24 c-19 -18 -28 -21 -37 -12 -8 8 13
38 88 118 133 143 156 172 149 184 -4 6 -1 17 5 25 10 12 21 7 66 -31 30 -26
54 -49 54 -53z m-5136 -240 c38 -40 24 -61 -18 -27 l-29 23 -181 -195 c-100
-107 -185 -201 -189 -209 -6 -10 -1 -23 14 -39 17 -18 20 -27 12 -35 -9 -9
-33 8 -92 62 -45 40 -81 76 -81 80 0 20 24 19 47 -2 l25 -24 36 41 c21 22 105
114 187 203 83 89 152 167 154 172 2 6 -6 19 -18 30 -22 21 -26 31 -15 42 7 7
96 -67 148 -122z m181 -165 c57 -52 68 -67 57 -77 -10 -11 -16 -10 -32 7 -21
20 -21 20 -178 1 -103 -13 -161 -24 -168 -33 -7 -8 -14 -91 -19 -205 -6 -174
-5 -192 11 -210 13 -15 15 -22 6 -31 -9 -9 -23 -2 -58 32 l-45 45 7 195 c3
107 10 202 15 211 6 12 46 20 171 34 188 21 202 25 165 50 -22 14 -28 45 -8
45 3 0 38 -29 76 -64z m4466 15 l-30 -26 180 -244 c120 -162 177 -247 170
-254 -6 -6 -110 22 -308 86 -164 52 -299 93 -301 92 -2 -1 59 -86 134 -189
l137 -185 29 21 c22 15 33 17 41 9 6 -6 9 -12 6 -14 -38 -32 -144 -107 -150
-107 -21 0 -17 22 7 43 l27 24 -158 216 c-91 124 -167 218 -178 221 -12 3 -32
-3 -47 -14 -20 -14 -30 -16 -38 -8 -8 8 4 22 45 54 31 23 62 40 67 38 123 -42
551 -173 554 -170 3 4 -214 310 -249 350 -4 5 -21 -1 -37 -12 -27 -20 -42 -20
-42 -1 0 5 33 33 72 63 55 41 76 52 86 44 10 -9 6 -16 -17 -37z m-4164 -233
c61 -39 80 -57 74 -67 -7 -11 -14 -10 -40 5 -17 10 -32 16 -35 13 -4 -4 -232
-362 -274 -431 l-23 -37 88 -57 c48 -31 95 -59 104 -61 11 -3 23 6 35 26 20
34 22 35 43 22 12 -8 8 -19 -18 -60 -18 -28 -36 -51 -39 -51 -16 0 -362 227
-362 238 0 17 21 15 48 -4 13 -9 25 -14 27 -13 1 2 70 111 153 241 l151 238
-29 20 c-18 13 -27 26 -24 35 7 17 6 18 121 -57z m3580 -165 c2 -6 -10 -16
-27 -23 -16 -7 -30 -16 -30 -20 0 -5 55 -131 122 -280 80 -180 118 -274 111
-281 -7 -7 -101 43 -282 147 -150 86 -273 155 -275 153 -4 -5 176 -405 186
-414 3 -4 20 0 36 9 27 14 31 14 36 0 4 -11 -16 -25 -80 -55 -47 -21 -87 -39
-89 -39 -2 0 -5 7 -9 15 -4 10 5 19 29 29 l34 15 -109 243 c-62 139 -117 249
-129 256 -14 10 -25 11 -40 3 -27 -15 -51 -14 -51 2 0 8 28 26 62 40 l61 27
254 -146 c140 -80 257 -144 259 -141 3 2 -35 93 -83 201 -73 164 -91 196 -105
192 -10 -4 -26 -9 -37 -12 -11 -3 -20 0 -24 9 -4 10 17 24 76 50 83 37 98 39
104 20z m-3084 -105 c110 -48 125 -72 34 -56 -15 2 -39 -44 -132 -252 -103
-230 -113 -256 -98 -267 9 -7 23 -13 30 -13 13 0 18 -22 7 -32 -10 -11 -199
81 -203 98 -3 17 -3 17 57 -2 16 -5 35 32 130 246 62 138 112 256 112 261 0 6
-13 15 -30 20 -30 11 -36 20 -23 32 10 11 11 10 116 -35z m347 -138 l36 -10
110 -275 c60 -151 111 -275 114 -275 10 0 112 418 106 429 -4 6 -16 11 -27 11
-18 0 -37 25 -28 35 2 2 43 -6 92 -18 71 -17 87 -24 87 -40 0 -11 -5 -17 -12
-14 -57 21 -56 21 -72 -35 -9 -29 -43 -164 -77 -300 -54 -216 -63 -246 -78
-238 -9 5 -67 136 -130 296 -87 219 -116 283 -123 268 -7 -17 -108 -417 -108
-428 0 -3 16 -8 35 -12 19 -3 35 -10 35 -15 0 -17 -27 -20 -71 -9 -24 6 -61
16 -81 21 -22 6 -38 16 -38 25 0 11 8 13 38 8 l37 -6 64 254 c70 277 72 301
21 311 -19 4 -30 13 -30 23 0 17 17 16 100 -6z m2029 -57 c7 -32 15 -66 17
-75 4 -13 0 -18 -16 -18 -15 0 -22 8 -27 30 -3 17 -10 33 -15 36 -6 4 -57 -4
-114 -17 -83 -18 -104 -26 -104 -40 0 -21 46 -218 53 -225 3 -4 110 18 159 32
13 4 17 15 15 42 -1 26 2 37 14 40 21 4 64 -177 43 -185 -18 -7 -34 5 -34 25
-1 39 -12 42 -98 22 -46 -10 -85 -20 -88 -22 -3 -4 39 -212 50 -244 3 -8 41
-3 120 14 l117 26 -7 42 c-5 33 -3 42 12 48 9 3 18 5 19 4 5 -7 26 -120 23
-122 -3 -3 -413 -96 -423 -96 -3 0 -5 7 -5 15 0 9 12 18 30 22 17 3 32 8 34
12 2 3 -25 128 -59 276 l-61 270 -36 -2 c-23 -1 -38 3 -42 12 -5 14 -2 14 292
82 48 11 77 23 83 35 18 34 36 19 48 -39z m-541 -139 c-2 -56 -6 -69 -20 -72
-15 -3 -18 4 -18 39 l0 42 -95 -5 c-53 -3 -98 -8 -101 -11 -3 -3 0 -128 8
-279 l13 -273 48 3 c42 3 47 1 47 -17 0 -20 -5 -21 -112 -21 -62 0 -123 -3
-135 -6 -19 -5 -23 -2 -23 15 0 18 6 21 46 21 l47 0 -6 128 c-4 70 -10 196
-13 281 l-7 154 -66 -7 c-36 -3 -81 -6 -98 -6 -32 0 -33 -2 -33 -40 0 -33 -3
-40 -20 -40 -17 0 -20 7 -20 44 0 24 -3 58 -6 75 -6 28 -4 31 19 31 14 0 27
-5 29 -12 5 -15 455 2 466 18 10 15 35 23 45 14 4 -4 7 -38 5 -76z m-774 -500
c35 -35 0 -126 -69 -178 -47 -36 -59 -12 -16 32 38 38 42 82 9 105 -23 14 -23
15 -4 36 23 25 58 27 80 5z"/>
<path d="M3673 8754 l-41 -15 19 -67 c11 -37 26 -93 35 -124 9 -32 22 -58 29
-58 30 0 110 31 131 51 54 51 51 143 -6 201 -24 23 -36 28 -77 27 -26 0 -67
-7 -90 -15z"/>
<path d="M2974 8471 c-109 -49 -142 -192 -78 -331 35 -76 83 -131 144 -164 45
-24 60 -28 115 -24 75 5 123 36 156 100 65 128 -23 348 -166 414 -60 29 -116
30 -171 5z"/>
<path d="M4525 7826 c-1126 -137 -2047 -860 -2444 -1919 -197 -524 -234 -1121
-106 -1692 51 -226 151 -495 262 -705 603 -1137 1851 -1753 3118 -1539 597
100 1149 386 1585 819 471 469 754 1042 852 1725 17 121 17 619 0 740 -68 472
-221 883 -466 1255 -115 174 -229 313 -381 465 -458 458 -1009 735 -1675 840
-142 23 -592 29 -745 11z m1195 -696 c473 -237 860 -432 860 -435 0 -3 -780
-5 -1732 -4 l-1733 0 865 434 c476 239 868 434 873 434 4 1 394 -193 867 -429z
m500 -750 l0 -140 -1365 0 -1365 0 0 140 0 140 1365 0 1365 0 0 -140z m-2280
-230 c0 -39 -1 -40 -34 -40 -31 0 -35 -4 -57 -52 -24 -53 -24 -56 -27 -455
l-3 -403 205 0 206 0 0 288 c0 274 1 290 23 352 27 76 80 162 138 225 l42 45
-162 0 -161 0 0 40 0 40 225 0 225 0 0 -40 c0 -38 -2 -40 -30 -40 -25 0 -33
-7 -52 -42 -23 -42 -23 -49 -26 -455 l-3 -413 400 0 399 0 4 288 c4 264 6 292
26 346 28 78 75 154 135 222 l49 54 -161 0 -161 0 0 40 0 40 225 0 225 0 0
-39 c0 -37 -2 -40 -32 -43 -25 -2 -35 -11 -52 -43 -20 -38 -21 -56 -24 -452
l-3 -413 201 0 200 0 0 265 c0 154 5 286 11 317 16 79 63 169 130 253 l59 75
-155 0 -155 0 0 40 0 40 225 0 225 0 0 -40 c0 -39 -1 -40 -34 -40 -31 0 -35
-4 -57 -52 l-24 -53 0 -1400 0 -1400 23 -3 c17 -3 22 -10 22 -33 l0 -29 -160
0 -160 0 0 30 c0 25 4 30 25 30 l25 0 0 725 0 725 -200 0 -200 0 0 -725 0
-725 26 0 c22 0 25 -4 22 -27 l-3 -28 -157 -3 -158 -3 0 31 c0 23 4 30 20 30
20 0 20 7 20 725 l0 725 -400 0 -400 0 0 -725 0 -725 25 0 c21 0 25 -5 25 -30
l0 -30 -160 0 -160 0 0 29 c0 23 5 30 23 33 l22 3 3 723 2 722 -205 0 -205 0
2 -722 3 -723 23 -3 c17 -3 22 -10 22 -33 l0 -29 -160 0 -160 0 0 30 c0 25 4
30 25 30 l25 0 0 1273 c0 836 4 1287 11 1317 16 71 65 164 130 245 l59 75
-155 0 -155 0 0 40 0 40 225 0 225 0 0 -40z m2715 -978 c40 -23 75 -94 75
-153 0 -129 -89 -236 -232 -281 -68 -21 -78 -22 -78 -9 0 6 27 22 60 37 53 24
140 99 140 121 0 5 -20 7 -45 5 -112 -9 -188 83 -156 189 31 102 140 145 236
91z m547 18 c23 0 76 -46 95 -83 23 -46 20 -145 -6 -200 -41 -84 -120 -145
-226 -173 -66 -18 -78 -2 -18 23 63 27 124 73 145 110 l17 30 -52 -4 c-64 -5
-112 19 -139 68 -21 40 -23 109 -4 147 30 58 98 97 151 86 11 -2 28 -4 37 -4z
m-4492 -23 l-35 -12 0 -135 0 -134 33 -10 c59 -17 33 -26 -73 -26 -107 0 -131
8 -72 25 l32 10 0 135 0 135 -35 12 c-31 11 -23 12 75 12 98 0 106 -1 75 -12z
m620 -4 c0 -10 -39 -114 -87 -230 l-87 -213 -32 0 -33 0 39 83 c21 45 61 131
89 191 28 60 51 113 51 117 0 5 -45 9 -100 9 l-101 0 -19 -42 c-16 -38 -19
-40 -19 -17 -1 14 2 47 5 73 l7 46 143 0 c130 0 144 -2 144 -17z m2950 -2163
l0 -60 165 0 165 0 0 -55 0 -55 -1755 0 -1755 0 0 55 0 55 160 0 160 0 0 60 0
60 1430 0 1430 0 0 -60z"/>
<path d="M4250 7074 l-605 -303 75 0 75 0 505 253 505 254 508 -255 508 -254
120 3 119 3 -602 301 -603 302 -605 -304z"/>
<path d="M4792 7132 c-40 -22 -72 -68 -72 -102 1 -24 1 -24 14 6 44 100 186
97 217 -4 22 -74 -15 -134 -94 -152 l-32 -8 33 -1 c73 -2 132 59 132 137 0 58
-23 98 -70 122 -48 24 -84 25 -128 2z"/>
<path d="M4780 7084 c0 -4 14 -22 31 -41 l30 -35 -22 -24 c-33 -35 -18 -39 21
-4 l33 29 -44 41 c-44 41 -49 44 -49 34z"/>
<path d="M3935 5060 c49 -49 90 -90 90 -90 0 0 41 41 90 90 l90 90 -180 0
-180 0 90 -90z"/>
<path d="M4540 5065 c47 -47 89 -85 95 -85 6 0 48 38 95 85 l85 85 -180 0
-180 0 85 -85z"/>
<path d="M4960 5065 c47 -47 89 -85 95 -85 6 0 48 38 95 85 l85 85 -180 0
-180 0 85 -85z"/>
<path d="M5586 5068 c47 -46 89 -84 93 -86 4 -1 47 36 96 83 l90 85 -183 0
-183 0 87 -82z"/>
<path d="M3820 4955 c0 -96 3 -175 7 -175 4 0 47 39 95 87 l88 88 -87 87 c-48
49 -91 88 -95 88 -5 0 -8 -79 -8 -175z"/>
<path d="M4127 5042 l-87 -87 88 -88 c48 -48 91 -87 95 -87 4 0 7 79 7 175 0
96 -3 175 -8 175 -4 0 -47 -39 -95 -88z"/>
<path d="M4741 5046 c-46 -46 -82 -88 -80 -93 5 -12 165 -163 173 -163 9 0 7
328 -2 334 -5 3 -46 -33 -91 -78z"/>
<path d="M4850 4953 l0 -176 28 23 c67 60 152 145 152 155 0 12 -161 175 -173
175 -4 0 -7 -80 -7 -177z"/>
<path d="M5157 5042 l-87 -87 90 -90 90 -90 0 178 c0 97 -1 177 -3 177 -1 0
-42 -39 -90 -88z"/>
<path d="M5480 4955 l0 -180 92 92 93 93 -55 51 c-30 28 -72 67 -92 87 l-38
36 0 -179z"/>
<path d="M5786 5044 l-90 -85 92 -92 92 -92 0 178 c0 97 -1 177 -2 177 -2 -1
-43 -39 -92 -86z"/>
<path d="M4450 4953 l0 -168 85 85 85 85 -82 82 c-46 46 -84 83 -85 83 -2 0
-3 -75 -3 -167z"/>
<path d="M3935 4850 l-90 -90 180 0 180 0 -90 90 c-49 50 -90 90 -90 90 0 0
-41 -40 -90 -90z"/>
<path d="M4545 4850 l-90 -90 185 0 185 0 -55 53 c-30 29 -73 69 -96 89 l-40
37 -89 -89z"/>
<path d="M4967 4853 c-48 -47 -86 -88 -84 -90 2 -2 81 -2 176 -1 l171 3 -87
87 -88 87 -88 -86z"/>
<path d="M5585 4850 l-90 -90 185 0 185 0 -90 90 c-49 50 -92 90 -95 90 -3 0
-46 -40 -95 -90z"/>
<path d="M6523 5156 c-24 -21 -28 -32 -31 -92 -5 -110 39 -169 112 -150 34 8
46 40 46 122 0 121 -60 178 -127 120z"/>
<path d="M7124 5168 c-34 -16 -49 -55 -48 -124 1 -95 41 -142 110 -130 28 6
35 13 44 44 23 84 5 173 -41 206 -27 18 -35 19 -65 4z"/>
<path d="M8020 7061 c-103 -33 -206 -119 -235 -196 -24 -60 -17 -142 16 -189
60 -88 189 -109 309 -49 204 101 259 303 111 408 -35 24 -53 30 -109 32 -37 1
-78 -1 -92 -6z"/>
<path d="M1301 4169 c-68 -16 -125 -30 -127 -32 -2 -1 4 -31 13 -65 20 -81 63
-122 126 -122 55 0 107 27 131 68 17 31 18 39 6 103 -7 39 -16 71 -19 73 -3 2
-62 -9 -130 -25z"/>
<path d="M1428 3443 c-65 -2 -118 -8 -118 -12 0 -5 9 -30 20 -55 11 -25 29
-67 40 -93 l21 -47 99 99 c55 55 100 103 100 107 0 5 -10 7 -22 6 -13 -1 -76
-4 -140 -5z"/>
</g>
</svg>
