<svg viewBox="0 0 512 512" xmlns="http://www.w3.org/2000/svg"><g id="Glyph"><g id="Glyph-2" data-name="Glyph" fill="#CECFD1"><path d="m65.26 399.98a78.088 78.088 0 0 0 27.02 57.82l30.81 26.6c32.3 28.83 84.76 28.55 116.76-.59l173.37-152.82a101.99 101.99 0 0 0 -1.18-154.05l-176.54-150.9c-33.02-29.21-86.02-25.5-116.29 6.3l-32.43 30.81c-31.2 30.15-29.55 84.74 3.41 112.95l91.18 81.67-90.91 83.57a78.108 78.108 0 0 0 -25.2 58.64zm32.94-232.82a65.426 65.426 0 0 1 -21.94-47.08c0-.16.01-.31 0-.46a77.671 77.671 0 0 0 13 15.77l.09.09 96.6 86.13c7.76 6.66 9.42 19.04 3.77 27.52zm22.79 276.54a84.03 84.03 0 0 0 113.07-.6l167.22-152.82a1 1 0 0 1 .11-.1c21.45-20.59 29.52-45.77 23.33-72.81a95.26 95.26 0 0 0 -3.75-12.34 89.987 89.987 0 0 1 -15.69 116.96l-173.37 152.82a77.1 77.1 0 0 1 -100.98.51l-30.81-26.6a66.059 66.059 0 0 1 -22.81-52.62 55.185 55.185 0 0 0 13.83 20.86c7.23 6.89 28.98 25.97 29.85 26.74z"/></g></g></svg>